<svg width="64" height="64" viewBox="0 0 64 64">
  <defs>
    <linearGradient id="a" x1="67.927%" x2="35.474%" y1="23.984%" y2="75.167%">
      <stop offset="0%" stop-color="#171A18"/>
      <stop offset="100%" stop-color="#454D49"/>
    </linearGradient>
  </defs>
  <g fill="none" fill-rule="evenodd">
    <path fill="#C6CCC9" fill-rule="nonzero" d="M31.982 34L4 20v30l28 14"/>
    <path fill="#47B37D" fill-rule="nonzero" d="M31.982 26L32 34 0 18l4-6"/>
    <path fill="#52CC8F" fill-rule="nonzero" d="M32.018 26L60 12l4 6-32 16"/>
    <path fill="#DFE6E2" fill-rule="nonzero" d="M32.018 34L60 20v30L32 64"/>
    <path fill="#52CC8F" fill-rule="nonzero" d="M35 51l22-11 4 2-22 11"/>
    <path fill="#47B37D" d="M39 53l22-11v1L39 54"/>
    <path fill="#3D996B" d="M35 51l4 2v1l-4-2"/>
    <path fill="url(#a)" fill-rule="nonzero" d="M35 36l22-11v15L35 51"/>
    <path fill="#5CE6A1" fill-rule="nonzero" d="M32 0l28 12.171-28 14-28-14"/>
  </g>
</svg>
